<?xml version="1.0" encoding="utf-8" ?>
<svg xmlns="http://www.w3.org/2000/svg" xmlns:xlink="http://www.w3.org/1999/xlink" width="18" height="18">
	<defs>
		<clipPath id="clip_0">
			<rect x="-247" y="-594" width="1440" height="800" clip-rule="evenodd"/>
		</clipPath>
		<linearGradient id="gradient_0" gradientUnits="userSpaceOnUse" x1="4.7209754" y1="14.892005" x2="23.743967" y2="-3.0847728">
			<stop offset="0" stop-color="rgb(229,54,86)"/>
			<stop offset="1" stop-color="rgb(96,130,216)"/>
		</linearGradient>
	</defs>
	<g clip-path="url(#clip_0)">
		<path fill="url(#gradient_0)" stroke="none" d="M9 18C13.9627 18 18 13.9627 18 9C18 4.03729 13.9627 0 9 0C4.03729 0 0 4.03729 0 9C0 13.9627 4.03729 18 9 18ZM8.94118 1C13.3205 1 16.8824 4.56188 16.8824 8.94118C16.8824 13.3205 13.3205 16.8824 8.94118 16.8824C4.56188 16.8824 1 13.3205 1 8.94118C1 4.56188 4.56188 1 8.94118 1Z" fill-rule="evenodd"/>
	</g>
	<defs>
		<clipPath id="clip_1">
			<rect x="-247" y="-594" width="1440" height="800" clip-rule="evenodd"/>
		</clipPath>
		<linearGradient id="gradient_1" gradientUnits="userSpaceOnUse" x1="0.26227641" y1="8.2733364" x2="1.3191093" y2="-1.7137628">
			<stop offset="0" stop-color="rgb(229,54,86)"/>
			<stop offset="1" stop-color="rgb(96,130,216)"/>
		</linearGradient>
	</defs>
	<g clip-path="url(#clip_1)">
		<path fill="url(#gradient_1)" stroke="none" transform="translate(9 4)" d="M0 0L1 0L1 10L0 10L0 0L1 0L1 10L0 10L0 0Z"/>
	</g>
	<defs>
		<clipPath id="clip_2">
			<rect x="-247" y="-594" width="1440" height="800" clip-rule="evenodd"/>
		</clipPath>
		<linearGradient id="gradient_2" gradientUnits="userSpaceOnUse" x1="0.26227641" y1="8.2733364" x2="1.3191093" y2="-1.7137628">
			<stop offset="0" stop-color="rgb(229,54,86)"/>
			<stop offset="1" stop-color="rgb(96,130,216)"/>
		</linearGradient>
	</defs>
	<g clip-path="url(#clip_2)">
		<path fill="url(#gradient_2)" stroke="none" transform="matrix(-4.37114e-08 1 -1 -4.37114e-08 14.5 8.5)" d="M0 0L1 0L1 10L0 10L0 0L1 0L1 10L0 10L0 0Z"/>
	</g>

</svg>