<svg xmlns="http://www.w3.org/2000/svg" width="39" height="37" viewBox="0 0 39 37"><g><g><path fill="#c5d5e6" d="M28.818 6.786A5.449 5.449 0 0 1 32.1 10.07a1.078 1.078 0 1 0 2.034-.72 7.521 7.521 0 0 0-4.594-4.6 1.08 1.08 0 0 0-.722 2.034z"/></g><g><path fill="#c5d5e6" d="M18.935 36.554a1.086 1.086 0 0 0 1.033 0c12.28-6.699 18.905-17.718 18.905-24.685C38.873 5.324 33.55 0 27.004 0a11.914 11.914 0 0 0-10.762 6.86 1.078 1.078 0 1 0 1.955.912 9.751 9.751 0 0 1 8.807-5.614c5.355 0 9.711 4.356 9.711 9.71 0 6.335-6.445 16.401-17.263 22.504C8.632 28.269 2.188 18.204 2.188 11.869c0-5.355 4.357-9.711 9.71-9.711 1.353 0 2.66.272 3.89.81A1.08 1.08 0 1 0 16.651.99 11.785 11.785 0 0 0 11.899 0C5.355 0 .03 5.324.03 11.869c0 6.967 6.626 17.986 18.905 24.685z"/></g></g></svg>