<svg xmlns="http://www.w3.org/2000/svg" width="30" height="30" viewBox="0 0 30 30"><g><g><g><path fill="#9c5d9a" d="M0 5a5 5 0 0 1 5-5h20a5 5 0 0 1 5 5v20a5 5 0 0 1-5 5H5a5 5 0 0 1-5-5z"/></g><g><g><g><path fill="#fff" d="M19.301 10.127c.701.249 1.267.816 1.515 1.517a.498.498 0 1 0 .939-.333 3.471 3.471 0 0 0-2.12-2.123.499.499 0 0 0-.334.94z"/></g><g><path fill="#fff" d="M14.745 23.87a.501.501 0 0 0 .477 0c5.668-3.09 8.726-8.177 8.726-11.392A5.484 5.484 0 0 0 18.47 7a5.499 5.499 0 0 0-4.968 3.166.498.498 0 1 0 .903.421 4.5 4.5 0 0 1 4.065-2.591 4.487 4.487 0 0 1 4.482 4.482c0 2.924-2.975 7.57-7.968 10.386-4.993-2.817-7.968-7.462-7.968-10.386a4.487 4.487 0 0 1 6.277-4.109.498.498 0 1 0 .399-.912 5.484 5.484 0 0 0-7.671 5.02c-.001 3.216 3.057 8.302 8.724 11.394z"/></g></g></g></g></g></svg>