<?xml version="1.0" encoding="utf-8" ?>
<svg xmlns="http://www.w3.org/2000/svg" xmlns:xlink="http://www.w3.org/1999/xlink" width="9" height="18">
	<defs>
		<clipPath id="clip_0">
			<rect x="-253.15039" y="-714.15002" width="1368" height="760" clip-rule="evenodd"/>
		</clipPath>
	</defs>
	<g clip-path="url(#clip_0)">
		<path fill="rgb(197,213,230)" stroke="none" transform="matrix(0.95 0 0 0.95 0.5 1.20001)" d="M8.388 5.89765L8.06082 9L5.58106 9L5.58106 18L1.85612 18L1.85612 9L0 9L0 5.89765L1.85612 5.89765L1.85612 4.02988C1.85612 1.50671 2.90541 0 5.88812 0L8.36682 0L8.36682 3.10235L6.81565 3.10235C5.65835 3.10235 5.58106 3.53965 5.58106 4.34753L5.58106 5.89765L8.388 5.89765L8.388 5.89765L8.06082 9L5.58106 9L5.58106 18L1.85612 18L1.85612 9L0 9L0 5.89765L1.85612 5.89765L1.85612 4.02988C1.85612 1.50671 2.90541 0 5.88812 0L8.36682 0L8.36682 3.10235L6.81565 3.10235C5.65835 3.10235 5.58106 3.53965 5.58106 4.34753L5.58106 5.89765L8.388 5.89765L8.388 5.89765Z"/>
	</g>

</svg>