<svg xmlns="http://www.w3.org/2000/svg" width="30" height="30" viewBox="0 0 30 30"><g><g><g><path fill="#8492f3" d="M0 5a5 5 0 0 1 5-5h20a5 5 0 0 1 5 5v20a5 5 0 0 1-5 5H5a5 5 0 0 1-5-5z"/></g><g><path fill="#fff" d="M21.927 14.368v-4.273H7.656c-.29 0-.582-.145-.582-.467a.578.578 0 0 1 .582-.57h15.285v5.31zm1.014 5.67h-1.014v-1.435h1.014zm-5.1-2.504c-.33 0-.596-.236-.596-.527v-1.053c0-.291.268-.527.596-.527h5.1v2.107zM7.059 21.21V11.063c.025.008.057.005.082.013.152.044.31.072.48.075.007 0 .013.003.02.003H20.87v3.214h-3.027c-.913 0-1.655.712-1.655 1.588v1.059c0 .875.742 1.588 1.655 1.588h3.027v3.177H7.641a.577.577 0 0 1-.582-.57zM6.015 9.628H6v11.583c0 .898.736 1.628 1.641 1.628h14.286v-1.752H24V8H7.656c-.904 0-1.641.73-1.641 1.628z"/></g></g></g></svg>