<?xml version="1.0" encoding="utf-8" ?>
<svg xmlns="http://www.w3.org/2000/svg" xmlns:xlink="http://www.w3.org/1999/xlink" width="30" height="30">
	<defs>
		<clipPath id="clip_0">
			<rect x="-1356" y="-360" width="1440" height="800" clip-rule="evenodd"/>
		</clipPath>
	</defs>
	<g clip-path="url(#clip_0)">
		<path fill="rgb(156,93,154)" stroke="none" d="M5 0L25 0Q25.1281 0 25.2553 0.00582875Q25.3825 0.0116575 25.5086 0.0233031Q25.6347 0.0349487 25.7594 0.0523874Q25.8841 0.0698261 26.0072 0.0930224Q26.1303 0.116219 26.2515 0.145125Q26.3727 0.174032 26.4918 0.208589Q26.6108 0.243147 26.7275 0.283285Q26.8442 0.323424 26.9583 0.369061Q27.0724 0.414698 27.1837 0.465741Q27.2949 0.516784 27.4031 0.573129Q27.5113 0.629473 27.6162 0.691005Q27.7211 0.752536 27.8225 0.819128Q27.9238 0.885721 28.0215 0.957238Q28.1192 1.02876 28.213 1.10505Q28.3067 1.18135 28.3964 1.26227Q28.4861 1.34319 28.5714 1.42857Q28.6568 1.51395 28.7377 1.60362Q28.8187 1.69328 28.895 1.78704Q28.9713 1.88081 29.0428 1.97849Q29.1143 2.07616 29.1809 2.17755Q29.2475 2.27894 29.309 2.38383Q29.3705 2.48872 29.4269 2.5969Q29.4832 2.70508 29.5343 2.81633Q29.5853 2.92758 29.6309 3.04167Q29.6766 3.15577 29.7167 3.27247Q29.7569 3.38917 29.7914 3.50825Q29.826 3.62732 29.8549 3.74853Q29.8838 3.86973 29.907 3.99281Q29.9302 4.1159 29.9476 4.24061Q29.9651 4.36533 29.9767 4.49142Q29.9883 4.61751 29.9942 4.74472Q30 4.87193 30 5L30 25Q30 25.1281 29.9942 25.2553Q29.9883 25.3825 29.9767 25.5086Q29.9651 25.6347 29.9476 25.7594Q29.9302 25.8841 29.907 26.0072Q29.8838 26.1303 29.8549 26.2515Q29.826 26.3727 29.7914 26.4918Q29.7569 26.6108 29.7167 26.7275Q29.6766 26.8442 29.6309 26.9583Q29.5853 27.0724 29.5343 27.1837Q29.4832 27.2949 29.4269 27.4031Q29.3705 27.5113 29.309 27.6162Q29.2475 27.7211 29.1809 27.8225Q29.1143 27.9238 29.0428 28.0215Q28.9712 28.1192 28.8949 28.213Q28.8187 28.3067 28.7377 28.3964Q28.6568 28.4861 28.5714 28.5714Q28.4861 28.6568 28.3964 28.7377Q28.3067 28.8187 28.213 28.8949Q28.1192 28.9712 28.0215 29.0428Q27.9238 29.1143 27.8225 29.1809Q27.7211 29.2475 27.6162 29.309Q27.5113 29.3705 27.4031 29.4269Q27.2949 29.4832 27.1837 29.5343Q27.0724 29.5853 26.9583 29.6309Q26.8442 29.6766 26.7275 29.7167Q26.6108 29.7569 26.4918 29.7914Q26.3727 29.826 26.2515 29.8549Q26.1303 29.8838 26.0072 29.907Q25.8841 29.9302 25.7594 29.9476Q25.6347 29.9651 25.5086 29.9767Q25.3825 29.9883 25.2553 29.9942Q25.1281 30 25 30L5 30Q4.87193 30 4.74472 29.9942Q4.61751 29.9883 4.49142 29.9767Q4.36533 29.9651 4.24061 29.9476Q4.1159 29.9302 3.99281 29.907Q3.86973 29.8838 3.74853 29.8549Q3.62732 29.826 3.50825 29.7914Q3.38917 29.7569 3.27247 29.7167Q3.15577 29.6766 3.04167 29.6309Q2.92758 29.5853 2.81633 29.5343Q2.70508 29.4832 2.5969 29.4269Q2.48872 29.3705 2.38383 29.309Q2.27894 29.2475 2.17755 29.1809Q2.07616 29.1143 1.97849 29.0428Q1.88081 28.9712 1.78704 28.8949Q1.69328 28.8187 1.60362 28.7377Q1.51395 28.6568 1.42857 28.5714Q1.34319 28.4861 1.26227 28.3964Q1.18135 28.3067 1.10505 28.213Q1.02876 28.1192 0.957239 28.0215Q0.885721 27.9238 0.819128 27.8225Q0.752536 27.7211 0.691005 27.6162Q0.629473 27.5113 0.573129 27.4031Q0.516784 27.2949 0.465741 27.1837Q0.414698 27.0724 0.369061 26.9583Q0.323424 26.8442 0.283285 26.7275Q0.243147 26.6108 0.208589 26.4918Q0.174031 26.3727 0.145125 26.2515Q0.116219 26.1303 0.0930224 26.0072Q0.0698261 25.8841 0.0523874 25.7594Q0.0349487 25.6347 0.0233031 25.5086Q0.0116575 25.3825 0.00582875 25.2553Q0 25.1281 0 25L0 5Q0 4.87193 0.00582875 4.74472Q0.0116575 4.61751 0.0233031 4.49142Q0.0349487 4.36533 0.0523874 4.24061Q0.0698261 4.1159 0.0930224 3.99281Q0.116219 3.86973 0.145125 3.74853Q0.174032 3.62732 0.208589 3.50825Q0.243147 3.38917 0.283285 3.27247Q0.323424 3.15577 0.369061 3.04167Q0.414698 2.92758 0.465741 2.81633Q0.516784 2.70508 0.573129 2.5969Q0.629473 2.48872 0.691005 2.38383Q0.752536 2.27894 0.819128 2.17755Q0.885721 2.07616 0.957238 1.97849Q1.02876 1.88081 1.10505 1.78704Q1.18135 1.69328 1.26227 1.60362Q1.34319 1.51395 1.42857 1.42857Q1.51395 1.34319 1.60362 1.26227Q1.69328 1.18135 1.78704 1.10505Q1.88081 1.02876 1.97849 0.957239Q2.07616 0.885721 2.17755 0.819128Q2.27894 0.752536 2.38383 0.691005Q2.48872 0.629473 2.5969 0.573129Q2.70508 0.516784 2.81633 0.465741Q2.92758 0.414698 3.04167 0.369061Q3.15577 0.323424 3.27247 0.283285Q3.38917 0.243147 3.50825 0.208589Q3.62732 0.174031 3.74853 0.145125Q3.86973 0.116219 3.99281 0.0930224Q4.1159 0.0698261 4.24061 0.0523874Q4.36533 0.0349487 4.49142 0.0233031Q4.61751 0.0116575 4.74472 0.00582875Q4.87193 0 5 0L25 0Q25.1281 0 25.2553 0.00582875Q25.3825 0.0116575 25.5086 0.0233031Q25.6347 0.0349487 25.7594 0.0523874Q25.8841 0.0698261 26.0072 0.0930224Q26.1303 0.116219 26.2515 0.145125Q26.3727 0.174032 26.4918 0.208589Q26.6108 0.243147 26.7275 0.283285Q26.8442 0.323424 26.9583 0.369061Q27.0724 0.414698 27.1837 0.465741Q27.2949 0.516784 27.4031 0.573129Q27.5113 0.629473 27.6162 0.691005Q27.7211 0.752536 27.8225 0.819128Q27.9238 0.885721 28.0215 0.957238Q28.1192 1.02876 28.213 1.10505Q28.3067 1.18135 28.3964 1.26227Q28.4861 1.34319 28.5714 1.42857Q28.6568 1.51395 28.7377 1.60362Q28.8187 1.69328 28.895 1.78704Q28.9713 1.88081 29.0428 1.97849Q29.1143 2.07616 29.1809 2.17755Q29.2475 2.27894 29.309 2.38383Q29.3705 2.48872 29.4269 2.5969Q29.4832 2.70508 29.5343 2.81633Q29.5853 2.92758 29.6309 3.04167Q29.6766 3.15577 29.7167 3.27247Q29.7569 3.38917 29.7914 3.50825Q29.826 3.62732 29.8549 3.74853Q29.8838 3.86973 29.907 3.99281Q29.9302 4.1159 29.9476 4.24061Q29.9651 4.36533 29.9767 4.49142Q29.9883 4.61751 29.9942 4.74472Q30 4.87193 30 5L30 25Q30 25.1281 29.9942 25.2553Q29.9883 25.3825 29.9767 25.5086Q29.9651 25.6347 29.9476 25.7594Q29.9302 25.8841 29.907 26.0072Q29.8838 26.1303 29.8549 26.2515Q29.826 26.3727 29.7914 26.4918Q29.7569 26.6108 29.7167 26.7275Q29.6766 26.8442 29.6309 26.9583Q29.5853 27.0724 29.5343 27.1837Q29.4832 27.2949 29.4269 27.4031Q29.3705 27.5113 29.309 27.6162Q29.2475 27.7211 29.1809 27.8225Q29.1143 27.9238 29.0428 28.0215Q28.9712 28.1192 28.8949 28.213Q28.8187 28.3067 28.7377 28.3964Q28.6568 28.4861 28.5714 28.5714Q28.4861 28.6568 28.3964 28.7377Q28.3067 28.8187 28.213 28.8949Q28.1192 28.9712 28.0215 29.0428Q27.9238 29.1143 27.8225 29.1809Q27.7211 29.2475 27.6162 29.309Q27.5113 29.3705 27.4031 29.4269Q27.2949 29.4832 27.1837 29.5343Q27.0724 29.5853 26.9583 29.6309Q26.8442 29.6766 26.7275 29.7167Q26.6108 29.7569 26.4918 29.7914Q26.3727 29.826 26.2515 29.8549Q26.1303 29.8838 26.0072 29.907Q25.8841 29.9302 25.7594 29.9476Q25.6347 29.9651 25.5086 29.9767Q25.3825 29.9883 25.2553 29.9942Q25.1281 30 25 30L5 30Q4.87193 30 4.74472 29.9942Q4.61751 29.9883 4.49142 29.9767Q4.36533 29.9651 4.24061 29.9476Q4.1159 29.9302 3.99281 29.907Q3.86973 29.8838 3.74853 29.8549Q3.62732 29.826 3.50825 29.7914Q3.38917 29.7569 3.27247 29.7167Q3.15577 29.6766 3.04167 29.6309Q2.92758 29.5853 2.81633 29.5343Q2.70508 29.4832 2.5969 29.4269Q2.48872 29.3705 2.38383 29.309Q2.27894 29.2475 2.17755 29.1809Q2.07616 29.1143 1.97849 29.0428Q1.88081 28.9712 1.78704 28.8949Q1.69328 28.8187 1.60362 28.7377Q1.51395 28.6568 1.42857 28.5714Q1.34319 28.4861 1.26227 28.3964Q1.18135 28.3067 1.10505 28.213Q1.02876 28.1192 0.957239 28.0215Q0.885721 27.9238 0.819128 27.8225Q0.752536 27.7211 0.691005 27.6162Q0.629473 27.5113 0.573129 27.4031Q0.516784 27.2949 0.465741 27.1837Q0.414698 27.0724 0.369061 26.9583Q0.323424 26.8442 0.283285 26.7275Q0.243147 26.6108 0.208589 26.4918Q0.174031 26.3727 0.145125 26.2515Q0.116219 26.1303 0.0930224 26.0072Q0.0698261 25.8841 0.0523874 25.7594Q0.0349487 25.6347 0.0233031 25.5086Q0.0116575 25.3825 0.00582875 25.2553Q0 25.1281 0 25L0 5Q0 4.87193 0.00582875 4.74472Q0.0116575 4.61751 0.0233031 4.49142Q0.0349487 4.36533 0.0523874 4.24061Q0.0698261 4.1159 0.0930224 3.99281Q0.116219 3.86973 0.145125 3.74853Q0.174032 3.62732 0.208589 3.50825Q0.243147 3.38917 0.283285 3.27247Q0.323424 3.15577 0.369061 3.04167Q0.414698 2.92758 0.465741 2.81633Q0.516784 2.70508 0.573129 2.5969Q0.629473 2.48872 0.691005 2.38383Q0.752536 2.27894 0.819128 2.17755Q0.885721 2.07616 0.957238 1.97849Q1.02876 1.88081 1.10505 1.78704Q1.18135 1.69328 1.26227 1.60362Q1.34319 1.51395 1.42857 1.42857Q1.51395 1.34319 1.60362 1.26227Q1.69328 1.18135 1.78704 1.10505Q1.88081 1.02876 1.97849 0.957239Q2.07616 0.885721 2.17755 0.819128Q2.27894 0.752536 2.38383 0.691005Q2.48872 0.629473 2.5969 0.573129Q2.70508 0.516784 2.81633 0.465741Q2.92758 0.414698 3.04167 0.369061Q3.15577 0.323424 3.27247 0.283285Q3.38917 0.243147 3.50825 0.208589Q3.62732 0.174031 3.74853 0.145125Q3.86973 0.116219 3.99281 0.0930224Q4.1159 0.0698261 4.24061 0.0523874Q4.36533 0.0349487 4.49142 0.0233031Q4.61751 0.0116575 4.74472 0.00582875Q4.87193 0 5 0Z"/>
	</g>
	<defs>
		<clipPath id="clip_1">
			<rect x="-1356" y="-360" width="1440" height="800" clip-rule="evenodd"/>
		</clipPath>
	</defs>
	<g clip-path="url(#clip_1)">
		<path fill="rgb(255,255,255)" stroke="none" transform="translate(6 8)" d="M1.656 0C0.751765 0 0.0148235 0.730588 0.0148235 1.62847L0 1.62847L0 13.2109C0 14.1088 0.735882 14.8394 1.64118 14.8394L15.9268 14.8394L15.9268 13.0871L18 13.0871L18 0L1.656 0ZM1.07365 1.62847C1.07365 1.95035 1.36694 2.09541 1.656 2.09541L15.9268 2.09541L15.9268 6.36776L16.9412 6.36776L16.9412 1.05882L1.656 1.05882C1.33624 1.05882 1.07471 1.314 1.07365 1.62847ZM1.64118 13.7795C1.32035 13.7795 1.05882 13.5244 1.05882 13.2099L1.05882 3.06318C1.08424 3.07059 1.116 3.06847 1.14141 3.07588C1.29282 3.12035 1.45165 3.14788 1.62106 3.15106C1.62847 3.15106 1.63376 3.15424 1.64118 3.15424L14.8691 3.15424L14.8691 6.36776L11.8419 6.36776C10.9292 6.36776 10.1869 7.08035 10.1869 7.956L10.1869 9.01482C10.1869 9.89047 10.9292 10.6031 11.8419 10.6031L14.8691 10.6031L14.8691 13.7795L1.64118 13.7795ZM11.2447 9.01482C11.2447 9.30706 11.5115 9.54424 11.8408 9.54424L16.9412 9.54424L16.9412 7.42659L11.8408 7.42659C11.5126 7.42659 11.2447 7.66376 11.2447 7.956L11.2447 9.01482ZM16.9412 12.0272L15.9268 12.0272L15.9268 10.6031L16.9412 10.6031L16.9412 12.0272Z" fill-rule="evenodd"/>
	</g>

</svg>