<svg xmlns="http://www.w3.org/2000/svg" width="80" height="80" viewBox="0 0 80 80"><g><g><path fill="#9c5d9a" d="M0 15C0 6.716 6.716 0 15 0h50c8.284 0 15 6.716 15 15v50c0 8.284-6.716 15-15 15H15C6.716 80 0 73.284 0 65z"/></g><g><path fill="#fff" d="M55.393 38.15v-9.494H23.68c-.642 0-1.294-.322-1.294-1.037a1.285 1.285 0 0 1 1.294-1.266h33.967V38.15zm2.264 12.587h-2.264v-3.175h2.264zM46.313 45.21c-.732 0-1.325-.527-1.325-1.176V41.68c0-.65.596-1.176 1.325-1.176h11.334v4.705zm-23.96 8.146V30.807c.056.017.127.012.183.028.337.1.69.16 1.066.167.017 0 .029.007.045.007h29.395v7.142h-6.727c-2.028 0-3.677 1.583-3.677 3.529v2.353c0 1.946 1.65 3.53 3.677 3.53h6.727v7.058H23.647c-.713 0-1.294-.567-1.294-1.266zm-2.32-25.736H20v25.739c0 1.995 1.635 3.618 3.647 3.618h31.746v-3.894H60V24H23.68c-2.01 0-3.647 1.624-3.647 3.619z"/></g></g></svg>