<?xml version="1.0" encoding="utf-8" ?>
<svg xmlns="http://www.w3.org/2000/svg" xmlns:xlink="http://www.w3.org/1999/xlink" width="40" height="33">
	<defs>
		<clipPath id="clip_0">
			<rect x="-485.38867" y="-1149.89" width="1396.8" height="1703.3201" clip-rule="evenodd"/>
		</clipPath>
	</defs>
	<g clip-path="url(#clip_0)">
		<path fill="rgb(197,213,230)" stroke="none" transform="matrix(0.97 0 0 0.97 1.55078 0.530029)" d="M3.68 0C1.67059 0 0.0329412 1.62353 0.0329412 3.61882L0 3.61882L0 29.3576C0 31.3529 1.63529 32.9765 3.64706 32.9765L35.3929 32.9765L35.3929 29.0824L40 29.0824L40 0L3.68 0ZM2.38588 3.61882C2.38588 4.33412 3.03765 4.65647 3.68 4.65647L35.3929 4.65647L35.3929 14.1506L37.6471 14.1506L37.6471 2.35294L3.68 2.35294C2.96941 2.35294 2.38824 2.92 2.38588 3.61882ZM3.64706 30.6212C2.93412 30.6212 2.35294 30.0541 2.35294 29.3553L2.35294 6.80706C2.40941 6.82353 2.48 6.81882 2.53647 6.83529C2.87294 6.93412 3.22588 6.99529 3.60235 7.00235C3.61882 7.00235 3.63059 7.00941 3.64706 7.00941L33.0424 7.00941L33.0424 14.1506L26.3153 14.1506C24.2871 14.1506 22.6376 15.7341 22.6376 17.68L22.6376 20.0329C22.6376 21.9788 24.2871 23.5624 26.3153 23.5624L33.0424 23.5624L33.0424 30.6212L3.64706 30.6212ZM24.9882 20.0329C24.9882 20.6824 25.5812 21.2094 26.3129 21.2094L37.6471 21.2094L37.6471 16.5035L26.3129 16.5035C25.5835 16.5035 24.9882 17.0306 24.9882 17.68L24.9882 20.0329ZM37.6471 26.7271L35.3929 26.7271L35.3929 23.5624L37.6471 23.5624L37.6471 26.7271Z" fill-rule="evenodd"/>
	</g>

</svg>