<?xml version="1.0" encoding="utf-8" ?>
<svg xmlns="http://www.w3.org/2000/svg" xmlns:xlink="http://www.w3.org/1999/xlink" width="36" height="34">
	<defs>
		<clipPath id="clip_0">
			<rect x="-30" y="-22" width="1440" height="800" clip-rule="evenodd"/>
		</clipPath>
		<linearGradient id="gradient_0" gradientUnits="userSpaceOnUse" x1="9.4419508" y1="27.342619" x2="47.487934" y2="-5.6638288">
			<stop offset="0" stop-color="rgb(229,54,86)"/>
			<stop offset="1" stop-color="rgb(96,130,216)"/>
		</linearGradient>
	</defs>
	<g clip-path="url(#clip_0)">
		<path fill="url(#gradient_0)" stroke="none" d="M18 3C16.038 1.50082 13.032 0 10 0C4.347 0 0 4.47466 0 10C0 17.1853 6.12 22.9014 16 31L16.8906 32.3359Q16.9475 32.4212 17.0086 32.4974Q17.0698 32.5736 17.1347 32.6402Q17.1997 32.7067 17.2679 32.763Q17.3361 32.8193 17.407 32.8648Q17.4779 32.9104 17.551 32.945Q17.624 32.9795 17.6986 33.0026Q17.7732 33.0258 17.8487 33.0375Q17.9242 33.0491 18 33.0491Q18.0758 33.0491 18.1513 33.0375Q18.2268 33.0258 18.3014 33.0026Q18.376 32.9795 18.449 32.945Q18.5221 32.9104 18.593 32.8648Q18.6639 32.8193 18.7321 32.763Q18.8003 32.7067 18.8653 32.6402Q18.9302 32.5736 18.9914 32.4974Q19.0525 32.4212 19.1094 32.3359L20 31C29.88 22.9014 36 17.1853 36 10C36 4.47466 31.653 0 26 0C22.968 0 19.962 1.50082 18 3C16.038 1.50082 13.032 0 10 0C4.347 0 0 4.47466 0 10C0 17.1853 6.12 22.9014 16 31L16.8906 32.3359Q16.9475 32.4212 17.0086 32.4974Q17.0698 32.5736 17.1347 32.6402Q17.1997 32.7067 17.2679 32.763Q17.3361 32.8193 17.407 32.8648Q17.4779 32.9104 17.551 32.945Q17.624 32.9795 17.6986 33.0026Q17.7732 33.0258 17.8487 33.0375Q17.9242 33.0491 18 33.0491Q18.0758 33.0491 18.1513 33.0375Q18.2268 33.0258 18.3014 33.0026Q18.376 32.9795 18.449 32.945Q18.5221 32.9104 18.593 32.8648Q18.6639 32.8193 18.7321 32.763Q18.8003 32.7067 18.8653 32.6402Q18.9302 32.5736 18.9914 32.4974Q19.0525 32.4212 19.1094 32.3359L20 31C29.88 22.9014 36 17.1853 36 10C36 4.47466 31.653 0 26 0C22.968 0 19.962 1.50082 18 3Z"/>
	</g>

</svg>