<svg xmlns="http://www.w3.org/2000/svg" width="80" height="80" viewBox="0 0 80 80"><defs><clipPath id="prkwa"><path fill="#fff" d="M0 15C0 6.716 6.716 0 15 0h50c8.284 0 15 6.716 15 15v50c0 8.284-6.716 15-15 15H15C6.716 80 0 73.284 0 65z"/></clipPath></defs><g><g><path fill="none" stroke="#c5d5e6" stroke-miterlimit="50" stroke-width="4" d="M0 15C0 6.716 6.716 0 15 0h50c8.284 0 15 6.716 15 15v50c0 8.284-6.716 15-15 15H15C6.716 80 0 73.284 0 65z" clip-path="url(&quot;#prkwa&quot;)"/></g><g><g><g><path fill="#c5d5e6" d="M24.388 27.137l-3.657-5.193 5.865-4.9v8.986zm13.964-7.895a4.275 4.275 0 0 1-4.155-3.3h8.31a4.275 4.275 0 0 1-4.155 3.3zm13.964 7.895l-2.208-1.107v-8.986l5.865 4.9zM34.484 42.653h-5.938V15.942h3.67a6.223 6.223 0 0 0 6.136 5.242 6.223 6.223 0 0 0 6.137-5.242h3.669v14.867a.97.97 0 0 0 1.942 0v-2.617l2.089 1.045a.967.967 0 0 0 1.227-.309l4.66-6.601a.971.971 0 0 0-.171-1.306l-8.151-6.793a.967.967 0 0 0-.625-.228H27.575a.966.966 0 0 0-.625.23l-8.15 6.79a.97.97 0 0 0-.172 1.307l4.66 6.601a.971.971 0 0 0 1.227.309l2.09-1.045v15.432c0 .536.434.97.97.97h6.91a.97.97 0 1 0 0-1.94z"/></g><g><path fill="#c5d5e6" d="M50.574 67.12l-1.32-23.74a.97.97 0 0 0-.97-.918h-1.827a.97.97 0 0 0-.969.918l-1.32 23.74h-5.586V38.966H56.16V67.12zm-8.93-32.268v2.173h-3.062v-2.173zm1.941 2.173v-2.173h7.582v2.173zm12.576 0h-3.062v-2.173h3.062zm.97-4.115h-19.52a.97.97 0 0 0-.971.97v34.211c0 .536.435.971.97.971h7.477a.97.97 0 0 0 .969-.917l1.315-23.657 1.315 23.657a.97.97 0 0 0 .97.917h7.475a.97.97 0 0 0 .971-.97V33.88a.97.97 0 0 0-.97-.971z"/></g></g></g></g></svg>