<?xml version="1.0" encoding="utf-8" ?>
<svg xmlns="http://www.w3.org/2000/svg" xmlns:xlink="http://www.w3.org/1999/xlink" width="30" height="30">
	<defs>
		<clipPath id="clip_0">
			<rect x="-1356" y="-410" width="1440" height="800" clip-rule="evenodd"/>
		</clipPath>
	</defs>
	<g clip-path="url(#clip_0)">
		<path fill="rgb(156,93,154)" stroke="none" d="M5 0L25 0Q25.1281 0 25.2553 0.00582875Q25.3825 0.0116575 25.5086 0.0233031Q25.6347 0.0349487 25.7594 0.0523874Q25.8841 0.0698261 26.0072 0.0930224Q26.1303 0.116219 26.2515 0.145125Q26.3727 0.174032 26.4918 0.208589Q26.6108 0.243147 26.7275 0.283285Q26.8442 0.323424 26.9583 0.369061Q27.0724 0.414698 27.1837 0.465741Q27.2949 0.516784 27.4031 0.573129Q27.5113 0.629473 27.6162 0.691005Q27.7211 0.752536 27.8225 0.819128Q27.9238 0.885721 28.0215 0.957238Q28.1192 1.02876 28.213 1.10505Q28.3067 1.18135 28.3964 1.26227Q28.4861 1.34319 28.5714 1.42857Q28.6568 1.51395 28.7377 1.60362Q28.8187 1.69328 28.895 1.78704Q28.9713 1.88081 29.0428 1.97849Q29.1143 2.07616 29.1809 2.17755Q29.2475 2.27894 29.309 2.38383Q29.3705 2.48872 29.4269 2.5969Q29.4832 2.70508 29.5343 2.81633Q29.5853 2.92758 29.6309 3.04167Q29.6766 3.15577 29.7167 3.27247Q29.7569 3.38917 29.7914 3.50825Q29.826 3.62732 29.8549 3.74853Q29.8838 3.86973 29.907 3.99281Q29.9302 4.1159 29.9476 4.24061Q29.9651 4.36533 29.9767 4.49142Q29.9883 4.61751 29.9942 4.74472Q30 4.87193 30 5L30 25Q30 25.1281 29.9942 25.2553Q29.9883 25.3825 29.9767 25.5086Q29.9651 25.6347 29.9476 25.7594Q29.9302 25.8841 29.907 26.0072Q29.8838 26.1303 29.8549 26.2515Q29.826 26.3727 29.7914 26.4918Q29.7569 26.6108 29.7167 26.7275Q29.6766 26.8442 29.6309 26.9583Q29.5853 27.0724 29.5343 27.1837Q29.4832 27.2949 29.4269 27.4031Q29.3705 27.5113 29.309 27.6162Q29.2475 27.7211 29.1809 27.8225Q29.1143 27.9238 29.0428 28.0215Q28.9712 28.1192 28.8949 28.213Q28.8187 28.3067 28.7377 28.3964Q28.6568 28.4861 28.5714 28.5714Q28.4861 28.6568 28.3964 28.7377Q28.3067 28.8187 28.213 28.8949Q28.1192 28.9712 28.0215 29.0428Q27.9238 29.1143 27.8225 29.1809Q27.7211 29.2475 27.6162 29.309Q27.5113 29.3705 27.4031 29.4269Q27.2949 29.4832 27.1837 29.5343Q27.0724 29.5853 26.9583 29.6309Q26.8442 29.6766 26.7275 29.7167Q26.6108 29.7569 26.4918 29.7914Q26.3727 29.826 26.2515 29.8549Q26.1303 29.8838 26.0072 29.907Q25.8841 29.9302 25.7594 29.9476Q25.6347 29.9651 25.5086 29.9767Q25.3825 29.9883 25.2553 29.9942Q25.1281 30 25 30L5 30Q4.87193 30 4.74472 29.9942Q4.61751 29.9883 4.49142 29.9767Q4.36533 29.9651 4.24061 29.9476Q4.1159 29.9302 3.99281 29.907Q3.86973 29.8838 3.74853 29.8549Q3.62732 29.826 3.50825 29.7914Q3.38917 29.7569 3.27247 29.7167Q3.15577 29.6766 3.04167 29.6309Q2.92758 29.5853 2.81633 29.5343Q2.70508 29.4832 2.5969 29.4269Q2.48872 29.3705 2.38383 29.309Q2.27894 29.2475 2.17755 29.1809Q2.07616 29.1143 1.97849 29.0428Q1.88081 28.9712 1.78704 28.8949Q1.69328 28.8187 1.60362 28.7377Q1.51395 28.6568 1.42857 28.5714Q1.34319 28.4861 1.26227 28.3964Q1.18135 28.3067 1.10505 28.213Q1.02876 28.1192 0.957239 28.0215Q0.885721 27.9238 0.819128 27.8225Q0.752536 27.7211 0.691005 27.6162Q0.629473 27.5113 0.573129 27.4031Q0.516784 27.2949 0.465741 27.1837Q0.414698 27.0724 0.369061 26.9583Q0.323424 26.8442 0.283285 26.7275Q0.243147 26.6108 0.208589 26.4918Q0.174031 26.3727 0.145125 26.2515Q0.116219 26.1303 0.0930224 26.0072Q0.0698261 25.8841 0.0523874 25.7594Q0.0349487 25.6347 0.0233031 25.5086Q0.0116575 25.3825 0.00582875 25.2553Q0 25.1281 0 25L0 5Q0 4.87193 0.00582875 4.74472Q0.0116575 4.61751 0.0233031 4.49142Q0.0349487 4.36533 0.0523874 4.24061Q0.0698261 4.1159 0.0930224 3.99281Q0.116219 3.86973 0.145125 3.74853Q0.174032 3.62732 0.208589 3.50825Q0.243147 3.38917 0.283285 3.27247Q0.323424 3.15577 0.369061 3.04167Q0.414698 2.92758 0.465741 2.81633Q0.516784 2.70508 0.573129 2.5969Q0.629473 2.48872 0.691005 2.38383Q0.752536 2.27894 0.819128 2.17755Q0.885721 2.07616 0.957238 1.97849Q1.02876 1.88081 1.10505 1.78704Q1.18135 1.69328 1.26227 1.60362Q1.34319 1.51395 1.42857 1.42857Q1.51395 1.34319 1.60362 1.26227Q1.69328 1.18135 1.78704 1.10505Q1.88081 1.02876 1.97849 0.957239Q2.07616 0.885721 2.17755 0.819128Q2.27894 0.752536 2.38383 0.691005Q2.48872 0.629473 2.5969 0.573129Q2.70508 0.516784 2.81633 0.465741Q2.92758 0.414698 3.04167 0.369061Q3.15577 0.323424 3.27247 0.283285Q3.38917 0.243147 3.50825 0.208589Q3.62732 0.174031 3.74853 0.145125Q3.86973 0.116219 3.99281 0.0930224Q4.1159 0.0698261 4.24061 0.0523874Q4.36533 0.0349487 4.49142 0.0233031Q4.61751 0.0116575 4.74472 0.00582875Q4.87193 0 5 0L25 0Q25.1281 0 25.2553 0.00582875Q25.3825 0.0116575 25.5086 0.0233031Q25.6347 0.0349487 25.7594 0.0523874Q25.8841 0.0698261 26.0072 0.0930224Q26.1303 0.116219 26.2515 0.145125Q26.3727 0.174032 26.4918 0.208589Q26.6108 0.243147 26.7275 0.283285Q26.8442 0.323424 26.9583 0.369061Q27.0724 0.414698 27.1837 0.465741Q27.2949 0.516784 27.4031 0.573129Q27.5113 0.629473 27.6162 0.691005Q27.7211 0.752536 27.8225 0.819128Q27.9238 0.885721 28.0215 0.957238Q28.1192 1.02876 28.213 1.10505Q28.3067 1.18135 28.3964 1.26227Q28.4861 1.34319 28.5714 1.42857Q28.6568 1.51395 28.7377 1.60362Q28.8187 1.69328 28.895 1.78704Q28.9713 1.88081 29.0428 1.97849Q29.1143 2.07616 29.1809 2.17755Q29.2475 2.27894 29.309 2.38383Q29.3705 2.48872 29.4269 2.5969Q29.4832 2.70508 29.5343 2.81633Q29.5853 2.92758 29.6309 3.04167Q29.6766 3.15577 29.7167 3.27247Q29.7569 3.38917 29.7914 3.50825Q29.826 3.62732 29.8549 3.74853Q29.8838 3.86973 29.907 3.99281Q29.9302 4.1159 29.9476 4.24061Q29.9651 4.36533 29.9767 4.49142Q29.9883 4.61751 29.9942 4.74472Q30 4.87193 30 5L30 25Q30 25.1281 29.9942 25.2553Q29.9883 25.3825 29.9767 25.5086Q29.9651 25.6347 29.9476 25.7594Q29.9302 25.8841 29.907 26.0072Q29.8838 26.1303 29.8549 26.2515Q29.826 26.3727 29.7914 26.4918Q29.7569 26.6108 29.7167 26.7275Q29.6766 26.8442 29.6309 26.9583Q29.5853 27.0724 29.5343 27.1837Q29.4832 27.2949 29.4269 27.4031Q29.3705 27.5113 29.309 27.6162Q29.2475 27.7211 29.1809 27.8225Q29.1143 27.9238 29.0428 28.0215Q28.9712 28.1192 28.8949 28.213Q28.8187 28.3067 28.7377 28.3964Q28.6568 28.4861 28.5714 28.5714Q28.4861 28.6568 28.3964 28.7377Q28.3067 28.8187 28.213 28.8949Q28.1192 28.9712 28.0215 29.0428Q27.9238 29.1143 27.8225 29.1809Q27.7211 29.2475 27.6162 29.309Q27.5113 29.3705 27.4031 29.4269Q27.2949 29.4832 27.1837 29.5343Q27.0724 29.5853 26.9583 29.6309Q26.8442 29.6766 26.7275 29.7167Q26.6108 29.7569 26.4918 29.7914Q26.3727 29.826 26.2515 29.8549Q26.1303 29.8838 26.0072 29.907Q25.8841 29.9302 25.7594 29.9476Q25.6347 29.9651 25.5086 29.9767Q25.3825 29.9883 25.2553 29.9942Q25.1281 30 25 30L5 30Q4.87193 30 4.74472 29.9942Q4.61751 29.9883 4.49142 29.9767Q4.36533 29.9651 4.24061 29.9476Q4.1159 29.9302 3.99281 29.907Q3.86973 29.8838 3.74853 29.8549Q3.62732 29.826 3.50825 29.7914Q3.38917 29.7569 3.27247 29.7167Q3.15577 29.6766 3.04167 29.6309Q2.92758 29.5853 2.81633 29.5343Q2.70508 29.4832 2.5969 29.4269Q2.48872 29.3705 2.38383 29.309Q2.27894 29.2475 2.17755 29.1809Q2.07616 29.1143 1.97849 29.0428Q1.88081 28.9712 1.78704 28.8949Q1.69328 28.8187 1.60362 28.7377Q1.51395 28.6568 1.42857 28.5714Q1.34319 28.4861 1.26227 28.3964Q1.18135 28.3067 1.10505 28.213Q1.02876 28.1192 0.957239 28.0215Q0.885721 27.9238 0.819128 27.8225Q0.752536 27.7211 0.691005 27.6162Q0.629473 27.5113 0.573129 27.4031Q0.516784 27.2949 0.465741 27.1837Q0.414698 27.0724 0.369061 26.9583Q0.323424 26.8442 0.283285 26.7275Q0.243147 26.6108 0.208589 26.4918Q0.174031 26.3727 0.145125 26.2515Q0.116219 26.1303 0.0930224 26.0072Q0.0698261 25.8841 0.0523874 25.7594Q0.0349487 25.6347 0.0233031 25.5086Q0.0116575 25.3825 0.00582875 25.2553Q0 25.1281 0 25L0 5Q0 4.87193 0.00582875 4.74472Q0.0116575 4.61751 0.0233031 4.49142Q0.0349487 4.36533 0.0523874 4.24061Q0.0698261 4.1159 0.0930224 3.99281Q0.116219 3.86973 0.145125 3.74853Q0.174032 3.62732 0.208589 3.50825Q0.243147 3.38917 0.283285 3.27247Q0.323424 3.15577 0.369061 3.04167Q0.414698 2.92758 0.465741 2.81633Q0.516784 2.70508 0.573129 2.5969Q0.629473 2.48872 0.691005 2.38383Q0.752536 2.27894 0.819128 2.17755Q0.885721 2.07616 0.957238 1.97849Q1.02876 1.88081 1.10505 1.78704Q1.18135 1.69328 1.26227 1.60362Q1.34319 1.51395 1.42857 1.42857Q1.51395 1.34319 1.60362 1.26227Q1.69328 1.18135 1.78704 1.10505Q1.88081 1.02876 1.97849 0.957239Q2.07616 0.885721 2.17755 0.819128Q2.27894 0.752536 2.38383 0.691005Q2.48872 0.629473 2.5969 0.573129Q2.70508 0.516784 2.81633 0.465741Q2.92758 0.414698 3.04167 0.369061Q3.15577 0.323424 3.27247 0.283285Q3.38917 0.243147 3.50825 0.208589Q3.62732 0.174031 3.74853 0.145125Q3.86973 0.116219 3.99281 0.0930224Q4.1159 0.0698261 4.24061 0.0523874Q4.36533 0.0349487 4.49142 0.0233031Q4.61751 0.0116575 4.74472 0.00582875Q4.87193 0 5 0Z"/>
	</g>
	<defs>
		<clipPath id="clip_1">
			<rect x="-1356" y="-410" width="1440" height="800" clip-rule="evenodd"/>
		</clipPath>
	</defs>
	<g clip-path="url(#clip_1)">
		<path fill="rgb(255,255,255)" stroke="none" transform="translate(6.04883 4)" d="M7.96086 2.87358C6.72259 2.87358 5.6931 1.96324 5.50602 0.776699L4.03848 0.776699L4.03848 11.4613L6.41373 11.4613C6.6282 11.4613 6.80213 11.6352 6.80213 11.8496C6.80213 12.0641 6.62825 12.238 6.41378 12.238L3.65018 12.238C3.43571 12.238 3.26183 12.0641 3.26183 11.8496L3.26183 5.67684L2.4261 6.09471C2.37059 6.12241 2.31125 6.13572 2.25264 6.13572C2.12982 6.13572 2.01005 6.07736 1.93512 5.97126L0.0710984 3.33064C-0.0456653 3.16526 -0.0157365 2.93794 0.139759 2.80834L3.39982 0.0916505C3.46745 0.0345372 3.5547 0 3.65013 0L12.2715 0C12.3668 0 12.454 0.0344337 12.5215 0.0913916L15.782 2.80834C15.9375 2.93794 15.9673 3.16526 15.8506 3.33064L13.9866 5.97126C13.9117 6.07741 13.7919 6.13572 13.6691 6.13572C13.6104 6.13572 13.5511 6.12246 13.4956 6.09471L12.6598 5.67684L12.6598 6.72368C12.6598 6.93815 12.486 7.11203 12.2715 7.11203C12.057 7.11203 11.8831 6.93815 11.8831 6.72368L11.8831 0.776699L10.4157 0.776699C10.2286 1.96324 9.19912 2.87358 7.96086 2.87358ZM7.96086 2.09688C7.15232 2.09688 6.47364 1.53222 6.29722 0.776699L9.6245 0.776699C9.44808 1.53227 8.7694 2.09688 7.96086 2.09688ZM0.912315 3.17556L2.37717 5.25074L3.26178 4.80844L3.26178 1.21771L0.912315 3.17556ZM12.6598 4.80844L13.5444 5.25074L15.0093 3.17556L12.6598 1.21771L12.6598 4.80844Z" fill-rule="evenodd"/>
	</g>
	<defs>
		<clipPath id="clip_2">
			<rect x="-1356" y="-410" width="1440" height="800" clip-rule="evenodd"/>
		</clipPath>
	</defs>
	<g clip-path="url(#clip_2)">
		<path fill="rgb(255,255,255)" stroke="none" transform="translate(13.3223 11.5631)" d="M0.38835 0C0.173877 0 0 0.173877 0 0.38835L0 14.0724C0 14.2869 0.173877 14.4608 0.38835 14.4608L3.37869 14.4608C3.58478 14.4608 3.75503 14.2998 3.76642 14.094L4.2924 4.63135L4.81838 14.094C4.82983 14.2998 5.00003 14.4608 5.20611 14.4608L8.19645 14.4608C8.41092 14.4608 8.5848 14.2869 8.5848 14.0724L8.5848 0.38835C8.58491 0.173825 8.41103 0 8.19656 0L0.38835 0ZM2.00129 0.776699L2.00129 1.64583L0.776699 1.64583L0.776699 0.776699L2.00129 0.776699ZM2.77799 0.776699L2.77799 1.64583L5.80691 1.64583L5.80691 0.776699L2.77799 0.776699ZM7.80821 1.64583L6.58361 1.64583L6.58361 0.776699L7.80821 0.776699L7.80821 1.64583ZM5.0457 4.18781L5.57359 13.684L7.80826 13.684L7.80826 2.42252L0.776751 2.42252L0.776751 13.684L3.01142 13.684L3.53926 4.18781C3.55065 3.98198 3.72091 3.821 3.92699 3.821L4.65797 3.821C4.86405 3.821 5.03425 3.98203 5.0457 4.18781Z" fill-rule="evenodd"/>
	</g>

</svg>