<svg xmlns="http://www.w3.org/2000/svg" width="41" height="55" viewBox="0 0 41 55"><g><g><path fill="#c5d5e6" d="M6.388 13.137L2.731 7.944l5.865-4.9v8.986zm13.964-7.895a4.275 4.275 0 0 1-4.155-3.3h8.31a4.275 4.275 0 0 1-4.155 3.3zm13.964 7.895l-2.208-1.107V3.044l5.865 4.9zM16.484 28.653h-5.938V1.942h3.67a6.223 6.223 0 0 0 6.136 5.242 6.223 6.223 0 0 0 6.137-5.242h3.669v14.867a.97.97 0 0 0 1.942 0v-2.617l2.089 1.045a.967.967 0 0 0 1.227-.309l4.66-6.601a.971.971 0 0 0-.171-1.306L31.754.228A.967.967 0 0 0 31.129 0H9.575a.966.966 0 0 0-.625.23L.8 7.02a.97.97 0 0 0-.172 1.307l4.66 6.601a.971.971 0 0 0 1.227.309l2.09-1.045v15.432c0 .536.434.971.97.971h6.91a.97.97 0 1 0 0-1.942z"/></g><g><path fill="#c5d5e6" d="M32.574 53.12l-1.32-23.74a.97.97 0 0 0-.97-.918h-1.827a.97.97 0 0 0-.969.918l-1.32 23.74h-5.586V24.966H38.16V53.12zm-8.93-32.268v2.173h-3.062v-2.173zm1.941 2.173v-2.173h7.582v2.173zm12.576 0h-3.062v-2.173h3.062zm.97-4.115h-19.52a.97.97 0 0 0-.971.97v34.211c0 .536.435.971.97.971h7.477a.97.97 0 0 0 .97-.917l1.314-23.657 1.315 23.657a.97.97 0 0 0 .97.917h7.475a.97.97 0 0 0 .971-.97V19.88a.97.97 0 0 0-.97-.971z"/></g></g></svg>