<svg xmlns="http://www.w3.org/2000/svg" width="30" height="31" viewBox="0 0 30 31"><g><g><path fill="#fff" d="M17.653 20.135h-5.632l-1.93 9.053H3.468l-.327 1.494h7.883l1.93-9.053h5.632c5.387 0 9.893-3.322 11.1-8.97.636-2.976-.026-5.187-1.303-6.71.612 1.373.822 3.1.37 5.217-1.207 5.648-5.713 8.97-11.1 8.97zM19.211 9.3c-.47 2.029-2.398 3.647-4.362 3.723l.925-4.098h3.501c-.02.125-.03.245-.064.375zm-5.64 3.748h-2.567l1.687-7.484h3.858c1.323 0 2.325.79 2.654 1.95-.169-.03-.325-.08-.51-.08h-3.857zM19.446 0H6.012L.06 27.323h7.883l1.93-9.054h5.633c5.387 0 9.892-3.322 11.1-8.97C27.97 2.905 23.386 0 19.446 0z"/></g></g></svg>