<svg xmlns="http://www.w3.org/2000/svg" width="22" height="39" viewBox="0 0 22 39"><g><g><path fill="#fff" d="M4.795 16.904V5.009h12.36v11.895zm13.497.574V4.436a.571.571 0 0 0-.568-.574H4.226a.571.571 0 0 0-.569.574v13.042c0 .316.255.573.569.573h13.498a.571.571 0 0 0 .568-.573zm-13.2 2.608a.571.571 0 0 0-.569-.574h-.297a.571.571 0 0 0-.569.574c0 .317.255.573.57.573h.296a.571.571 0 0 0 .57-.573zm2.438 0a.571.571 0 0 0-.569-.574h-.297a.571.571 0 0 0-.569.574c0 .317.255.573.57.573h.296a.571.571 0 0 0 .57-.573zm2.449 0a.573.573 0 0 0-.573-.574h-.3a.573.573 0 0 0 0 1.147h.3a.573.573 0 0 0 .573-.573zm-4.887 1.83a.571.571 0 0 0-.569-.573h-.297a.571.571 0 0 0-.569.574c0 .317.255.573.57.573h.296a.571.571 0 0 0 .57-.573zm2.438 0a.571.571 0 0 0-.569-.573h-.297a.571.571 0 0 0-.569.574c0 .317.255.573.57.573h.296a.571.571 0 0 0 .57-.573zm2.449 0a.573.573 0 0 0-.573-.573h-.3a.573.573 0 0 0 0 1.147h.3a.573.573 0 0 0 .573-.573zm3.92-1.257h3.265v1.713H13.9zm4.403 2.286v-2.859a.571.571 0 0 0-.569-.574h-4.402a.571.571 0 0 0-.57.574v2.86c0 .316.256.573.57.573h4.402a.571.571 0 0 0 .57-.574zm-13.21.803a.571.571 0 0 0-.569-.574h-.297a.571.571 0 0 0-.569.574c0 .317.255.573.57.573h.296a.571.571 0 0 0 .57-.573zm2.438 0a.571.571 0 0 0-.569-.574h-.297a.571.571 0 0 0-.569.574c0 .317.255.573.57.573h.296a.571.571 0 0 0 .57-.573zm2.449 0a.573.573 0 0 0-.573-.574h-.3a.573.573 0 0 0 0 1.147h.3a.573.573 0 0 0 .573-.573zM1.248 2.694c0-.853.689-1.547 1.535-1.547h16.393c.847 0 1.535.694 1.535 1.547V25.65H1.248zm0 24.102H20.71v11.025H1.248zm20.601 11.599v-35.7C21.85 1.208 20.65 0 19.176 0H2.783C1.309 0 .11 1.209.11 2.694v35.7c0 .317.255.574.569.574H21.28a.572.572 0 0 0 .57-.573z"/></g></g></svg>