<?xml version="1.0" encoding="utf-8" ?>
<svg xmlns="http://www.w3.org/2000/svg" xmlns:xlink="http://www.w3.org/1999/xlink" width="20" height="16">
	<defs>
		<clipPath id="clip_0">
			<rect x="-217.32031" y="-724.52002" width="1382.4" height="768" clip-rule="evenodd"/>
		</clipPath>
	</defs>
	<g clip-path="url(#clip_0)">
		<path fill="rgb(197,213,230)" stroke="none" transform="matrix(0.96 0 0 0.96 0.599609 0.279968)" d="M17.2683 4.40645C17.2683 9.61614 13.3019 15.62 6.05364 15.62C3.82043 15.62 1.74561 14.9729 0 13.8506C0.317898 13.8868 0.623352 13.8981 0.952563 13.8981C2.79547 13.8981 4.49017 13.2759 5.84548 12.2148C4.11231 12.1786 2.66084 11.0427 2.1608 9.48038C2.40403 9.51658 2.6484 9.54147 2.90294 9.54147C3.25817 9.54147 3.61227 9.49282 3.94148 9.40798C2.13591 9.04143 0.780604 7.45533 0.780604 5.54003C0.780604 5.52758 0.780604 5.50269 0.780604 5.49138C1.30553 5.78326 1.91531 5.96653 2.56242 5.99142C1.50125 5.28322 0.805493 4.07498 0.805493 2.70949C0.805493 1.97753 1.00121 1.30553 1.34287 0.719513C3.28306 3.11223 6.19958 4.67457 9.4702 4.84427C9.40798 4.55126 9.37177 4.24581 9.37177 3.94035C9.37177 1.76937 11.1298 0 13.3133 0C14.448 0 15.4729 0.47515 16.1936 1.24444C17.0839 1.07361 17.9369 0.744402 18.6949 0.293009C18.4019 1.20824 17.7797 1.97753 16.9617 2.46399C17.7559 2.37915 18.5241 2.15967 19.2323 1.85422C18.6949 2.63482 18.024 3.33171 17.2559 3.89284C17.2683 4.06367 17.2683 4.23449 17.2683 4.40645C17.2683 9.61614 13.3019 15.62 6.05364 15.62C3.82043 15.62 1.74561 14.9729 0 13.8506C0.317898 13.8868 0.623352 13.8981 0.952563 13.8981C2.79547 13.8981 4.49017 13.2759 5.84548 12.2148C4.11231 12.1786 2.66084 11.0427 2.1608 9.48038C2.40403 9.51658 2.6484 9.54147 2.90294 9.54147C3.25817 9.54147 3.61227 9.49282 3.94148 9.40798C2.13591 9.04143 0.780604 7.45533 0.780604 5.54003C0.780604 5.52758 0.780604 5.50269 0.780604 5.49138C1.30553 5.78326 1.91531 5.96653 2.56242 5.99142C1.50125 5.28322 0.805493 4.07498 0.805493 2.70949C0.805493 1.97753 1.00121 1.30553 1.34287 0.719513C3.28306 3.11223 6.19958 4.67457 9.4702 4.84427C9.40798 4.55126 9.37177 4.24581 9.37177 3.94035C9.37177 1.76937 11.1298 0 13.3133 0C14.448 0 15.4729 0.47515 16.1936 1.24444C17.0839 1.07361 17.9369 0.744402 18.6949 0.293009C18.4019 1.20824 17.7797 1.97753 16.9617 2.46399C17.7559 2.37915 18.5241 2.15967 19.2323 1.85422C18.6949 2.63482 18.024 3.33171 17.2559 3.89284C17.2683 4.06367 17.2683 4.23449 17.2683 4.40645Z"/>
	</g>

</svg>