<svg xmlns="http://www.w3.org/2000/svg" width="110" height="25" viewBox="0 0 110 25"><g><g><g opacity=".8"><path fill="#fff" d="M12.5 25C19.404 25 25 19.404 25 12.5S19.404 0 12.5 0 0 5.596 0 12.5 5.596 25 12.5 25z"/></g><g opacity=".7"><path fill="#fff" d="M28.5 25C35.404 25 41 19.404 41 12.5S35.404 0 28.5 0 16 5.596 16 12.5 21.596 25 28.5 25z"/></g></g><g><g><g><path fill="#fff" d="M78.722 19.052h3.888l2.433-14.256h-3.89zm.859-14.244l-4.119.003-3.808 9.722-.406-1.468c-.751-1.769-2.883-4.309-5.386-5.91l3.482 11.889 4.114-.007zm-8.498 7.332l-1.311-6.308c-.226-.87-.881-1.129-1.694-1.16H62.05l-.05.286c4.691 1.138 7.795 3.883 9.083 7.182zm21.796-1.613c-1.36-.662-2.192-1.102-2.184-1.77 0-.593.706-1.227 2.228-1.227a7.178 7.178 0 0 1 2.91.546l.351.165.526-3.092c-.77-.289-1.977-.599-3.483-.599-3.842 0-6.55 1.935-6.571 4.708-.025 2.049 1.929 3.193 3.405 3.876 1.515.7 2.023 1.145 2.016 1.77-.012.955-1.208 1.393-2.325 1.393-1.557 0-2.384-.215-3.661-.747l-.501-.228-.547 3.193c.91.399 2.589.742 4.332.76 4.087 0 6.743-1.912 6.771-4.875.017-1.621-1.02-2.858-3.267-3.873zm9.014 3.475c.32-.818 1.549-3.982 1.549-3.982-.021.04.317-.824.518-1.36l.262 1.228.901 4.114zm4.795-9.192h-3.004c-.933 0-1.627.254-2.037 1.184l-5.773 13.074h4.083s.666-1.758.817-2.143l4.979.006c.116.498.474 2.137.474 2.137h3.607z"/></g></g></g></g></svg>