<svg xmlns="http://www.w3.org/2000/svg" width="80" height="22" viewBox="0 0 80 22"><g><g><path fill="#fff" d="M71.34 17.262l-2.242-2.499 2.492-2.25 2.245 2.5zm-1.772-4.32l-2.25-2.499 2.5-2.253 2.25 2.5zm4.685-8.85l1.255-1.126 1.128 1.25-1.254 1.125zm.881 10.476l-1.69-1.872 1.874-1.69 1.692 1.872zM8.373 6.779h1.403L7.832 15.28H6.536l-1.63-5.984H4.82L3.238 15.28H1.942L0 6.78h1.344l1.342 6.342h.085L4.33 6.779h1.067l1.667 6.343h.085zM75.85 7.805l1.246-1.125 1.123 1.25-1.245 1.124zm-2.314 2.805l-1.693-1.874 1.877-1.688 1.696 1.874zm-5.509-6.684l2.25 2.5-2.5 2.25-2.249-2.5zm3.963-.648l1.688 1.876-1.875 1.688-1.688-1.876zm4.983 11.516l1.693 1.88-1.88 1.693-1.695-1.88zm-27.807-3.078c-.059-1.268-.673-1.772-1.318-1.772-.731 0-1.296.568-1.43 1.772zm1.136.36v.44h-3.908c0 1.444.59 2.078 1.824 2.078.646 0 1.246-.23 1.904-.623v.909a4.185 4.185 0 0 1-2.12.556c-2.013 0-2.84-1.249-2.84-3.148 0-1.827.921-3.146 2.721-3.146 1.498 0 2.423.972 2.42 2.933zm4.666-2.732h1.285l-2.168 5.997c-.6 1.656-1.331 2.518-2.709 2.518v-.98c.816 0 1.318-.647 1.606-1.535l-2.3-5.998H52l1.534 4.414h.072zm23.73 1.046l1.123 1.25-1.248 1.125-1.125-1.25zm-5.018 6.522l2.114 2.416c-.42.325-.879.634-1.383.918-1.528.872-3.299 1.37-5.179 1.37-5.787 0-10.509-4.72-10.509-10.507C58.723 5.32 63.445.6 69.232.6c1.648 0 3.213.384 4.606 1.066.22.104.436.219.652.344l-.967.865-1.45-1.502-2.452 2.189-1.453-1.59-4.574 4.118 2.93 3.23-1.153 1.011 2.888 3.234-1.147 1.01 4.125 4.59zm-37.067-4.629c0-1.619-.66-2.302-1.475-2.302-.79 0-1.476.683-1.476 2.302 0 1.645.624 2.301 1.476 2.301.85 0 1.475-.656 1.475-2.3zm1.259.005c0 2.053-1.091 3.148-2.734 3.148-1.642 0-2.735-1.095-2.735-3.148 0-2.1 1.152-3.146 2.735-3.146 1.582 0 2.734 1.044 2.734 3.146zM29.59 6.78h1.485v8.501h-1.293V9.115h-.107L27.23 15.28h-.765l-2.443-6.02h-.107v6.02h-1.078v-8.5h1.448l2.683 6.7h.061zm14.456 4.162v4.339H42.8v-4.066c0-.947-.466-1.115-1.082-1.115-.478 0-1.09.216-1.462.432v4.747h-1.245v-5.25c.54-.324 1.679-.887 3.058-.887 1.437.001 1.977.565 1.977 1.8zm-23.788 1.144c0-1.516-.554-2.008-1.357-2.008-.477 0-.826.13-1.306.394v3.913c.384.168.802.19 1.103.19.888 0 1.56-.55 1.56-2.489zm1.257-.003c0 2.24-1.078 3.332-2.817 3.332-.637 0-1.62-.205-2.34-.587v-8.36l1.247-.299v3.414c.361-.192.973-.443 1.62-.443 1.487 0 2.29 1.03 2.29 2.943zm-7.385-.366c-.06-1.268-.67-1.772-1.319-1.772-.731 0-1.296.568-1.427 1.772zm1.147.36v.44h-3.915c0 1.444.59 2.078 1.826 2.078.648 0 1.25-.23 1.91-.623v.909a4.202 4.202 0 0 1-2.126.556c-2.017 0-2.847-1.249-2.847-3.148 0-1.827.925-3.146 2.727-3.146 1.502 0 2.427.972 2.425 2.933z"/></g></g></svg>